<svg width="16" height="16" viewBox="0 0 16 16" fill="none" xmlns="http://www.w3.org/2000/svg">
<g clip-path="url(#clip0_436_2284)">
<path d="M14.9501 14.8949L11.5041 13.8688L8.90547 15.4223L7.09228 15.4215L4.49206 13.8688L1.04766 14.8949L0 11.3579L1.04777 7.43234L0 4.11346L1.04777 0L6.42986 3.21555H9.56789L14.9501 0L15.9979 4.11346L14.9501 7.43234L15.9979 11.3579L14.9501 14.8949Z" fill="#FF5C16"/>
<path d="M1.04834 0L6.43054 3.2178L6.21657 5.42614L1.04834 0ZM4.49285 11.3593L6.86096 13.1633L4.49285 13.8687V11.3593ZM6.67166 8.3769L6.21657 5.42772L3.30321 7.43324L3.30164 7.43245V7.43391L3.31065 9.49825L4.49206 8.37701L6.67166 8.3769ZM14.95 0L9.56778 3.2178L9.78107 5.42614L14.95 0ZM11.5056 11.3593L9.13735 13.1633L11.5056 13.8687V11.3593ZM12.696 7.4338V7.43234L12.6953 7.43313L9.78186 5.42772L9.32676 8.3769H11.5055L12.6877 9.49803L12.696 7.4338Z" fill="#FF5C16"/>
<path d="M4.49217 13.8687L1.04777 14.8947L0 11.3593H4.49217V13.8687ZM6.67099 8.3761L7.3289 12.6398L6.41701 10.2691L3.3093 9.49801L4.49138 8.37621L6.67099 8.3761ZM11.5056 13.8687L14.9501 14.8947L15.9979 11.3592H11.5056C11.5056 11.3593 11.5056 13.8687 11.5056 13.8687ZM9.32687 8.3761L8.66896 12.6398L9.58073 10.2691L12.6887 9.49801L11.5058 8.37621L9.32687 8.3761Z" fill="#E34807"/>
<path d="M0 11.3579L1.04777 7.43236H3.30096L3.30918 9.49738L6.41724 10.2684L7.32901 12.639L6.86028 13.161L4.49217 11.3571H0V11.3579ZM15.9979 11.3579L14.9501 7.43236H12.6968L12.6886 9.49738L9.58073 10.2684L8.66884 12.639L9.13746 13.161L11.5057 11.3571H15.9979V11.3579ZM9.56789 3.21558H6.42986L6.21679 5.42391L7.32913 12.6366H8.66896L9.78197 5.42391L9.56789 3.21558Z" fill="#FF8D5D"/>
<path d="M1.04777 0L0 4.11346L1.04777 7.43234H3.30096L6.21589 5.42625L1.04777 0ZM6.01983 9.23245H4.9991L4.44338 9.77724L6.41792 10.2667L6.01983 9.23166V9.23245ZM14.9501 0L15.9979 4.11346L14.9501 7.43234H12.6968L9.78197 5.42625L14.9501 0ZM9.97949 9.23245H11.0017L11.5574 9.77792L9.58062 10.2684L9.97949 9.23166V9.23245ZM8.90468 14.0152L9.13758 13.1626L8.66884 12.6406H7.328L6.85938 13.1626L7.09217 14.0152" fill="#661800"/>
<path d="M8.90457 14.0151V15.423H7.09229V14.0151H8.90457Z" fill="#C0C4CD"/>
<path d="M4.49292 13.8672L7.09382 15.4221V14.0143L6.86092 13.1617L4.49292 13.8672ZM11.5057 13.8672L8.90464 15.4221V14.0143L9.13754 13.1617L11.5057 13.8672Z" fill="#E7EBF6"/>
</g>
<defs>
<clipPath id="clip0_436_2284">
<rect width="16" height="15.4229" fill="white"/>
</clipPath>
</defs>
</svg>