<svg width="354" height="68" viewBox="0 0 354 68" fill="none" xmlns="http://www.w3.org/2000/svg">
<path d="M24.5761 8.7023L24.6855 5.96003C24.7077 5.39736 24.2206 4.94945 23.6635 5.02055L12.0888 6.49426C11.9186 6.51559 11.7586 6.58567 11.6259 6.69435L10.4581 7.65922C10.2353 7.84306 10.1127 8.12236 10.1289 8.41182L10.2565 10.7753C10.3001 11.5847 11.2967 11.9372 11.8376 11.3349C11.9824 11.1734 12.1809 11.0688 12.3957 11.0414L23.784 9.56866C24.2236 9.51178 24.5578 9.14614 24.5751 8.7023H24.5761Z" fill="#FBE8BD"/>
<path d="M25.911 14.4702L30.9397 18.086C31.5221 18.5044 32.301 17.9407 32.0883 17.2551L30.9984 13.7339C30.9701 13.6425 30.96 13.547 30.967 13.4515L31.4299 7.70594C31.4563 7.37484 31.2628 7.06507 30.9529 6.94623L27.1112 5.46845C26.6341 5.28462 26.1176 5.62588 26.0973 6.13777L25.9393 10.0958C25.9251 10.4614 25.6496 10.7621 25.2881 10.8088L13.0398 12.3932C12.8625 12.4166 12.6995 12.5019 12.58 12.6349L10.5553 14.8887C10.4651 14.9892 10.4034 15.1131 10.377 15.2462C10.2332 15.9795 11.1316 16.4487 11.6481 15.9104L11.7221 15.8342C11.8456 15.7053 12.0117 15.625 12.189 15.6088L25.4035 14.3361C25.5838 14.3189 25.7631 14.3676 25.9099 14.4733L25.911 14.4702Z" fill="#FBE8BD"/>
<path d="M36.6035 48.2428L36.5914 47.7065C36.5823 47.3033 36.242 46.9875 35.8409 47.0088L34.6781 47.0707C34.5809 47.0758 34.4857 47.1012 34.3986 47.1449L33.1356 47.7746C32.8307 47.9269 32.6758 48.2733 32.7649 48.6024C32.8925 49.0746 33.4445 49.2818 33.8496 49.0096L33.9388 48.9497C34.0755 48.8573 34.2406 48.8167 34.4047 48.8329L35.8206 48.9721C36.247 49.0137 36.6137 48.6724 36.6035 48.2438V48.2428Z" fill="#FBE8BD"/>
<path d="M33.3999 51.4858L33.4556 51.9825C33.486 52.2496 33.6633 52.4771 33.9145 52.5715L34.6093 52.8326C34.9202 52.9494 35.2686 52.8884 35.5218 52.6741L36.1275 52.1622C36.2622 52.0485 36.3503 51.888 36.3746 51.7133L36.4445 51.2065C36.5002 50.8043 36.2106 50.4366 35.8075 50.397L34.7703 50.2955C34.6062 50.2792 34.4411 50.3208 34.3044 50.4123L33.7119 50.8094C33.4901 50.9577 33.3695 51.2187 33.3999 51.4848V51.4858Z" fill="#FBE8BD"/>
<path d="M34.3104 45.6661L35.6839 45.593C36.1011 45.5706 36.4101 45.1958 36.3523 44.7804L36.0789 42.806C36.0303 42.4526 35.7284 42.1895 35.3719 42.1895H33.723C33.5944 42.1895 33.4668 42.225 33.3564 42.2911L31.9829 43.1158C31.7186 43.2742 31.5859 43.585 31.6538 43.8867L32.068 45.7291C32.1693 46.181 32.6676 46.4187 33.0809 46.2125L34.0299 45.7392C34.117 45.6955 34.2122 45.6702 34.3094 45.6651L34.3104 45.6661Z" fill="#FBE8BD"/>
<path d="M18.2418 44.6443L21.2843 43.6327C21.4525 43.5769 21.6307 43.5657 21.8049 43.5982L24.2904 44.0756C24.5355 44.1223 24.7898 44.0796 25.0065 43.9527L27.2155 42.6628C27.3543 42.5815 27.5092 42.5348 27.6693 42.5237L30.2702 42.353C30.4343 42.3418 30.5933 42.2921 30.7341 42.2078L32.8884 40.9138C33.0495 40.8173 33.2328 40.7666 33.4202 40.7666H34.5181C35.1643 40.7666 35.6525 40.1795 35.536 39.5417L35.1876 37.6343C35.1076 37.1986 34.7612 36.8614 34.3246 36.7953L26.227 35.5674C25.9485 35.5248 25.6993 35.3714 25.5372 35.1408L22.8026 31.2671C22.5068 30.8487 21.9518 30.7095 21.495 30.9381L14.2289 34.5843C14.1236 34.6371 14.0273 34.7082 13.9453 34.7935L10.8409 38.0334C10.6313 38.2518 10.528 38.5524 10.5573 38.8541L11.0182 43.5596C11.0891 44.2878 11.869 44.7154 12.5182 44.3823L13.3892 43.9364C13.605 43.8257 13.8531 43.7953 14.0891 43.8491L17.6857 44.6707C17.87 44.7124 18.0625 44.7032 18.2418 44.6443Z" fill="#FBE8BD"/>
<path d="M24.89 20.3437L23.5045 28.1257C23.3515 28.9819 23.548 29.8635 24.0494 30.5724L26.4073 33.9129C26.5308 34.0876 26.7202 34.2054 26.9319 34.2369L33.5083 35.2343C34.0694 35.3196 34.5333 34.7996 34.3864 34.2501L31.5819 23.7503C31.5322 23.5654 31.4188 23.406 31.2608 23.2993L26.1044 19.8278C25.6325 19.5099 24.9903 19.7831 24.8911 20.3448L24.89 20.3437Z" fill="#FBE8BD"/>
<path d="M23.9359 15.9033L13.3953 16.919C12.8636 16.9697 12.3683 17.2104 11.9976 17.5954L10.372 19.2875C10.1026 19.5678 10.1593 20.0248 10.4885 20.23L10.5067 20.2412C10.77 20.4057 11.1154 20.3458 11.3079 20.101L11.7636 19.5221C12.1272 19.06 12.657 18.7593 13.2383 18.6852L23.4204 17.3872C24.2894 17.2765 25.1696 17.4857 25.8978 17.9752L31.6426 21.8429C31.8786 22.0023 32.1926 21.9759 32.4002 21.7799C32.6798 21.5158 32.6494 21.0628 32.3375 20.8384L26.3941 16.5655C25.6821 16.0536 24.809 15.818 23.9359 15.9013V15.9033Z" fill="#FBE8BD"/>
<path d="M26.1561 3.57629L31.8513 5.76807C32.0752 5.8544 32.3243 5.84729 32.5441 5.74776C32.85 5.60861 33.0536 5.31001 33.0708 4.97281L33.1123 4.17146C33.1315 3.79973 32.9199 3.45441 32.5816 3.30206L26.7091 0.673541C26.1926 0.441971 25.6234 0.353609 25.0612 0.417595L11.7971 1.91975C11.1813 1.98983 10.5989 2.23867 10.1229 2.6368L8.46788 4.02013C8.28152 4.17654 8.16504 4.40201 8.14681 4.64476L8.10832 5.15868C8.08705 5.44916 8.20657 5.73252 8.43041 5.9194L8.80617 6.23223C9.13838 6.50849 9.61847 6.5095 9.95169 6.23426L10.8096 5.52533C11.0932 5.29173 11.4365 5.14243 11.8001 5.09672L24.9205 3.42597C25.3377 3.37315 25.7621 3.42394 26.1551 3.57527L26.1561 3.57629Z" fill="#FBE8BD"/>
<path d="M25.8168 45.5879L26.0781 49.2737C26.1075 49.6881 26.4812 49.9897 26.8914 49.9308L28.5889 49.685C28.6578 49.6749 28.7267 49.6749 28.7955 49.685L29.5268 49.7937C29.9725 49.8597 30.3675 49.5002 30.3431 49.0482L30.1031 44.5143C30.0818 44.1162 29.7405 43.8125 29.3445 43.8389L28.0167 43.9263C27.9063 43.9334 27.7999 43.9659 27.7047 44.0217L26.1692 44.9186C25.9343 45.0557 25.7975 45.3157 25.8168 45.5869V45.5879Z" fill="#FBE8BD"/>
<path d="M28.3702 55.0507L29.2787 55.2661C29.7061 55.3676 30.1224 55.0609 30.1548 54.6221L30.3422 52.0231C30.3695 51.6493 30.1042 51.3192 29.7355 51.2644L28.7936 51.1242C28.7247 51.1141 28.6558 51.1141 28.5869 51.1242L26.8226 51.3792C26.4671 51.431 26.2048 51.7397 26.2108 52.1003L26.2544 54.5439C26.2625 54.9878 26.6676 55.3179 27.1031 55.2336L28.0704 55.0457C28.1697 55.0264 28.272 55.0284 28.3702 55.0518V55.0507Z" fill="#FBE8BD"/>
<path d="M26.3192 57.4436L26.3485 58.4644C26.3576 58.7843 26.4924 59.087 26.7223 59.3084L27.0261 59.6009C27.4302 59.9889 28.046 60.0498 28.518 59.7492L29.0204 59.4282C29.2999 59.2505 29.4944 58.9651 29.5592 58.6391L29.775 57.5554C29.8499 57.1775 29.6139 56.8078 29.2402 56.7195L28.3388 56.5052C28.2405 56.4818 28.1382 56.4798 28.039 56.4991L26.8955 56.7215C26.5521 56.7885 26.308 57.0942 26.3181 57.4446L26.3192 57.4436Z" fill="#FBE8BD"/>
<path d="M18.7938 46.5304L19.2374 52.343C19.2698 52.7706 19.6679 53.0733 20.0872 52.99L21.3097 52.7462C21.3927 52.73 21.4778 52.7279 21.5609 52.7411L22.8684 52.9504C23.2867 53.0174 23.6706 52.7066 23.6929 52.2821L24.0221 46.1028C24.0413 45.7453 23.7942 45.4294 23.4437 45.3624L21.8161 45.0496C21.6966 45.0262 21.573 45.0343 21.4575 45.0729L19.2789 45.7971C18.968 45.9007 18.7674 46.2034 18.7918 46.5304H18.7938Z" fill="#FBE8BD"/>
<path d="M14.5185 32.8485L20.4193 29.8879C21.339 29.4268 21.9872 28.5563 22.1685 27.5417L23.4619 20.2818C23.5946 19.5383 22.9697 18.8792 22.2222 18.9746L13.5391 20.0817C13.2484 20.1183 12.9851 20.2686 12.8038 20.4991L6.352 28.7006C5.75747 29.4562 6.32871 30.5623 7.28685 30.5115L10.4743 30.3439C10.7953 30.3266 11.1083 30.4505 11.3332 30.6811L13.2211 32.6281C13.5604 32.9775 14.0861 33.0669 14.5206 32.8485H14.5185Z" fill="#FBE8BD"/>
<path d="M19.3964 55.1848L19.527 59.7644C19.5392 60.2052 19.9433 60.5302 20.3758 60.4459L21.3633 60.255C21.4626 60.2357 21.5649 60.2377 21.6631 60.2611L22.5129 60.4632C22.9504 60.5668 23.3728 60.2438 23.39 59.7939L23.5632 55.1381C23.5764 54.7765 23.3191 54.4617 22.9626 54.4048L21.5902 54.1854C21.5071 54.1722 21.422 54.1732 21.339 54.1905L19.9717 54.4627C19.6303 54.5307 19.3872 54.8354 19.3974 55.1848H19.3964Z" fill="#FBE8BD"/>
<path d="M19.5777 62.6418L19.5838 65.9823C19.5838 66.3641 19.764 66.7237 20.0689 66.9532L20.6077 67.3585C21.0119 67.6632 21.5618 67.6845 21.9882 67.4123L22.5017 67.0853C22.8319 66.875 23.0396 66.5185 23.0629 66.1275L23.2573 62.7088C23.2766 62.3625 23.0456 62.0517 22.7094 61.9724L21.6317 61.7165C21.5335 61.6931 21.4312 61.6911 21.3319 61.7104L20.155 61.9389C19.8187 62.0039 19.5767 62.2995 19.5767 62.6428L19.5777 62.6418Z" fill="#FBE8BD"/>
<path d="M11.3626 47.0799L11.7961 51.5031C11.8345 51.8992 12.188 52.1866 12.582 52.144L14.393 51.9479C14.4588 51.9408 14.5246 51.9429 14.5895 51.954L15.7411 52.1511C16.1432 52.2201 16.521 51.9368 16.5696 51.5305L17.1469 46.6625C17.1904 46.2989 16.9524 45.9617 16.5969 45.8804L14.161 45.3238C13.998 45.2862 13.8278 45.3076 13.6789 45.3837L11.7474 46.371C11.4861 46.505 11.3332 46.7854 11.3615 47.0779L11.3626 47.0799Z" fill="#FBE8BD"/>
<path d="M12.0847 54.3459L12.4929 58.2206C12.5405 58.6685 12.9831 58.961 13.4115 58.829L13.9412 58.6665C14.0557 58.6309 14.1782 58.6258 14.2957 58.6502L15.4068 58.8818C15.8423 58.9722 16.2546 58.6451 16.2647 58.1983L16.3579 54.3195C16.366 53.964 16.1138 53.6573 15.7654 53.5973L14.5449 53.3881C14.4801 53.3769 14.4142 53.3749 14.3484 53.382L12.7167 53.5587C12.3258 53.6014 12.0422 53.9528 12.0837 54.3449L12.0847 54.3459Z" fill="#FBE8BD"/>
<path d="M12.7967 61.1102L13.051 63.5599C13.0874 63.9093 13.2728 64.2262 13.5584 64.4283L14.077 64.795C14.5054 65.0976 15.0787 65.0915 15.5 64.7787L15.8413 64.5258C16.1614 64.2882 16.3447 63.9093 16.3326 63.5102L16.2586 61.0716C16.2485 60.7405 16.0135 60.4601 15.6904 60.3931L14.3646 60.1168C14.2471 60.0925 14.1246 60.0976 14.0101 60.1331L13.2971 60.3525C12.971 60.453 12.7613 60.7699 12.7967 61.1102Z" fill="#FBE8BD"/>
<path d="M11.9369 33.3462L10.7468 32.1183C10.532 31.8968 10.2333 31.78 9.92637 31.7963L4.7305 32.0685C4.23825 32.0939 3.82805 32.4544 3.73791 32.9399L3.18693 35.8995C3.08362 36.4561 3.43001 36.9965 3.97795 37.1336L8.02729 38.1431C8.39799 38.2356 8.78895 38.1218 9.0533 37.8466L11.9409 34.8321C12.339 34.4167 12.3369 33.7596 11.9369 33.3462Z" fill="#FBE8BD"/>
<path d="M1.43673 44.3234L1.73248 44.4534C2.08191 44.6068 2.48806 44.5621 2.79495 44.3335L5.323 42.4576C5.402 42.3997 5.47189 42.3307 5.53164 42.2525L6.72882 40.7026C7.19979 40.0922 6.88986 39.1974 6.1434 39.0105L3.63459 38.3848C3.11298 38.2548 2.57618 38.5341 2.38272 39.0369L0.870553 42.9594C0.664946 43.4926 0.914105 44.0938 1.43673 44.3234Z" fill="#FBE8BD"/>
<path d="M353.201 24.9287V26.1045H343.645V32.585H350.043V33.7607H343.645V41.8818H353.201V43.0576H340.596V24.9287H353.201Z" fill="white"/>
<path d="M311.694 24.9287H314.742V41.8818H323.875V43.0576H311.694V24.9287Z" fill="white"/>
<path d="M279.182 24.9287H286.483C287.449 24.9287 288.333 25.0381 289.135 25.2568C289.946 25.4665 290.639 25.7673 291.213 26.1592C291.796 26.5511 292.248 27.0205 292.567 27.5674C292.886 28.1143 293.045 28.7158 293.045 29.3721C293.045 29.8734 292.995 30.32 292.895 30.7119C292.795 31.1038 292.617 31.4684 292.362 31.8057C292.106 32.1338 291.765 32.4482 291.336 32.749C290.917 33.0407 290.384 33.3415 289.737 33.6514V33.7061C290.384 33.8063 290.967 33.9795 291.487 34.2256C292.006 34.4717 292.448 34.7861 292.813 35.1689C293.186 35.5426 293.474 35.9847 293.674 36.4951C293.875 36.9964 293.975 37.5479 293.975 38.1494C293.975 38.833 293.824 39.4756 293.524 40.0771C293.232 40.6696 292.808 41.1891 292.252 41.6357C291.705 42.0732 291.04 42.4196 290.256 42.6748C289.481 42.93 288.611 43.0576 287.645 43.0576H279.182V24.9287ZM282.231 33.0908H286.114C286.724 33.0908 287.267 33.0042 287.74 32.8311C288.214 32.6579 288.615 32.4209 288.944 32.1201C289.272 31.8102 289.518 31.4456 289.682 31.0264C289.855 30.598 289.942 30.1377 289.942 29.6455C289.942 29.1169 289.841 28.6383 289.641 28.21C289.44 27.7725 289.126 27.3988 288.698 27.0889C288.278 26.779 287.74 26.542 287.084 26.3779C286.437 26.2139 285.658 26.1318 284.746 26.1318H282.231V33.0908ZM282.231 41.7314H285.526C286.41 41.7314 287.175 41.6494 287.823 41.4854C288.479 41.3122 289.017 41.0752 289.436 40.7744C289.864 40.4645 290.179 40.0954 290.379 39.667C290.589 39.2386 290.694 38.7692 290.694 38.2588C290.694 37.6846 290.602 37.1514 290.42 36.6592C290.238 36.167 289.937 35.7432 289.518 35.3877C289.108 35.0231 288.565 34.736 287.891 34.5264C287.226 34.3167 286.405 34.2119 285.43 34.2119H282.231V41.7314Z" fill="white"/>
<path d="M254.121 24.5186L262.653 43.0576H259.549L256.787 37.0146H249.008L246.151 43.0576H244.619L253.356 24.5186H254.121ZM249.541 35.8389H256.227L252.932 28.6611L249.541 35.8389Z" fill="white"/>
<path d="M231.946 24.9287V26.1045H225.383V43.0576H222.334V26.1045H215.772V24.9287H231.946Z" fill="white"/>
<path d="M195.729 24.9287H198.778V43.0576H195.729V24.9287Z" fill="white"/>
<path d="M164.571 24.9287L171.42 39.3525L177.778 24.9287H179.227L170.996 43.4814H170.203L161.358 24.9287H164.571Z" fill="white"/>
<path d="M146.182 24.9287V26.1045H136.625V32.585H143.024V33.7607H136.625V41.8818H146.182V43.0576H133.576V24.9287H146.182Z" fill="white"/>
<path d="M99.5881 24.9287H101.297L113.178 38.1904H113.315V24.9287H114.655V43.4814H113.944L101.078 28.7432H100.969V43.0576H99.5881V24.9287Z" fill="white"/>
<path d="M77.6038 24.9287H80.6526V43.0576H77.6038V24.9287Z" fill="white"/>
</svg>
